<svg width="636" height="497" viewBox="0 0 636 497" fill="none" xmlns="http://www.w3.org/2000/svg">
<path opacity="0.1" d="M369.522 65.8931C328.749 64.5623 289.917 52.2061 252.836 38.6846C215.754 25.1631 179.026 10.1807 139.23 3.01776C113.633 -1.58994 84.3579 -2.24058 63.7384 10.6421C43.8875 23.0634 37.4743 44.4457 34.0282 64.308C31.4327 79.249 29.9081 94.9767 37.0144 108.96C41.9535 118.672 50.7103 126.834 56.7708 136.138C77.8565 168.505 62.9509 208.419 40.1076 240.022C29.3978 254.851 16.9556 269.005 8.68382 284.774C0.412081 300.543 -3.41194 318.637 3.82661 334.737C10.9959 350.707 28.0874 362.679 46.6028 371.108C84.2067 388.232 128.501 393.129 171.725 395.903C267.376 402.049 363.531 399.387 459.434 396.725C494.927 395.738 530.572 394.738 565.486 389.586C584.877 386.723 604.891 382.187 618.972 371.22C636.838 357.303 641.267 333.738 629.291 316.283C609.207 287.01 553.692 279.74 539.637 248.326C531.914 231.031 539.845 211.772 551.078 195.731C575.169 161.33 615.545 131.146 617.668 91.8241C619.129 64.8166 599.719 37.7678 569.707 24.9857C538.251 11.5944 494.625 13.2742 471.429 35.4492C447.521 58.2807 405.526 67.0643 369.522 65.8931Z" fill="#2DB3FF"/>
<path opacity="0.1" d="M304.595 486.27C410.356 486.27 496.092 475.38 496.092 461.948C496.092 448.515 410.356 437.625 304.595 437.625C198.834 437.625 113.098 448.515 113.098 461.948C113.098 475.38 198.834 486.27 304.595 486.27Z" fill="#2DB3FF"/>
<path d="M209.795 389.54C209.795 389.54 223.024 387.552 230.962 396.33C230.962 396.33 225.141 400.636 212.617 394.674L209.795 389.54Z" fill="#2DB3FF"/>
<path d="M208.383 389.343C208.383 389.343 199.942 399.15 204.081 409.956C204.081 409.956 210.96 407.371 211.71 394.205L208.383 389.343Z" fill="#2DB3FF"/>
<path d="M200.824 373.308C200.824 373.308 206.116 364.199 227.283 376.952C227.283 376.952 224.461 383.08 215.112 382.583C205.763 382.086 203.262 378.111 200.824 373.308Z" fill="#2DB3FF"/>
<path d="M199.431 372.651C199.431 372.651 188.451 371.468 187.386 395.069C187.386 395.069 194.347 396.429 199.293 388.959C204.238 381.488 202.191 377.312 199.431 372.651Z" fill="#2DB3FF"/>
<path d="M193.031 353.83C193.031 353.83 199.205 337.759 221.613 349.187C221.613 349.187 216.498 363.933 195.324 359.295L193.031 353.83Z" fill="#2DB3FF"/>
<path d="M186.151 329.809C186.151 329.809 197.793 313.579 218.438 328.626C218.438 328.626 211.206 343.863 187.915 335.582L186.151 329.809Z" fill="#2DB3FF"/>
<path d="M183.682 306.955C183.682 306.955 197.265 292.05 217.701 306.955C217.701 306.955 204.818 320.039 183.682 310.764V306.955Z" fill="#2DB3FF"/>
<path d="M181.565 284.762C181.565 284.762 195.324 269.188 214.91 283.934C214.91 283.934 199.381 297.68 181.565 288.405V284.762Z" fill="#2DB3FF"/>
<path d="M182.8 265.048C182.8 265.048 197.29 245.009 215.616 258.589C215.616 258.589 200.087 275.819 182.8 268.858V265.048Z" fill="#2DB3FF"/>
<path d="M186.151 242.027C186.151 242.027 201.498 222.153 219.32 237.39C219.32 237.39 201.145 254.614 186.151 245.671V242.027Z" fill="#2DB3FF"/>
<path d="M191.273 221.45C191.273 221.45 209.435 202.777 225.292 210.212C225.292 210.212 206.355 230.044 190.479 226.401L191.273 221.45Z" fill="#2DB3FF"/>
<path d="M197.617 201.948C197.617 201.948 218.615 179.087 230.786 186.705C230.786 186.705 215.339 204.45 196.137 206.254L197.617 201.948Z" fill="#2DB3FF"/>
<path d="M206.784 179.317C206.784 179.317 225.141 160.638 238.548 165.275C238.548 165.275 222.848 184.659 204.32 185.155L206.784 179.317Z" fill="#2DB3FF"/>
<path d="M215.087 158.153C215.087 158.153 235.372 140.266 244.192 143.413C244.192 143.413 229.551 163.287 214.205 162.128L215.087 158.153Z" fill="#2DB3FF"/>
<path d="M223.201 138.611C223.201 138.611 240.664 117.246 250.19 118.902C250.19 118.902 239.606 137.948 223.201 140.787V138.611Z" fill="#2DB3FF"/>
<path d="M232.002 112.278C232.002 112.278 247.443 95.8932 255.778 95.9346C255.778 95.9346 243.594 117.82 231.372 117.619L232.002 112.278Z" fill="#2DB3FF"/>
<path d="M237.224 94.7163L252.13 60.5991C252.13 60.5991 252.88 91.4394 235.322 101.045L237.224 94.7163Z" fill="#2DB3FF"/>
<path d="M243.272 57.0929C243.272 57.0929 245.742 28.6067 244.154 26.2881C244.154 26.2881 254.82 49.9477 243.172 69.6798L243.272 57.0929Z" fill="#2DB3FF"/>
<path d="M192.457 353.446C192.457 353.446 176.991 344.45 166.987 366.459C166.987 366.459 180.746 375.036 194.272 359.059L192.457 353.446Z" fill="#2DB3FF"/>
<path d="M185.66 328.893C185.66 328.893 166.698 320.772 157.493 343.751C157.493 343.751 172.147 353.215 187.386 334.701L185.66 328.893Z" fill="#2DB3FF"/>
<path d="M182.8 308.322C182.8 308.322 169.217 293.416 148.781 308.322C148.781 308.322 161.658 321.406 182.8 312.131V308.322Z" fill="#2DB3FF"/>
<path d="M181.105 284.762C181.105 284.762 167.34 269.188 147.76 283.934C147.76 283.934 163.283 297.68 181.105 288.405V284.762Z" fill="#2DB3FF"/>
<path d="M182.8 265.615C182.8 265.615 173.149 243.168 152.17 252.821C152.17 252.821 163.51 272.731 181.95 269.342L182.8 265.615Z" fill="#2DB3FF"/>
<path d="M187.368 241.915C187.368 241.915 177.779 219.077 156.498 229.665C156.498 229.665 169.526 250.598 186.423 245.446L187.368 241.915Z" fill="#2DB3FF"/>
<path d="M193.314 221.568C193.314 221.568 189.534 196.524 171.926 194.282C171.926 194.282 175.662 220.686 190.965 226.075L193.314 221.568Z" fill="#2DB3FF"/>
<path d="M198.071 201.989C198.071 201.989 196.59 171.823 182.006 170.776C182.006 170.776 182.498 193.667 196.427 206.265L198.071 201.989Z" fill="#2DB3FF"/>
<path d="M208.302 178.453C208.302 178.453 203.949 153.374 190.032 150.304C190.032 150.304 191.758 174.597 206.922 184.611L208.302 178.453Z" fill="#2DB3FF"/>
<path d="M216.737 158.336C216.737 158.336 216.586 132.204 208.081 128.365C208.081 128.365 202.808 152.024 214.274 161.672L216.737 158.336Z" fill="#2DB3FF"/>
<path d="M223.85 138.303C223.85 138.303 222.653 111.391 213.852 107.599C213.852 107.599 210.834 128.893 222.527 140.06L223.85 138.303Z" fill="#2DB3FF"/>
<path d="M233.237 114.407C233.237 114.407 233.18 92.5218 226.893 87.3877C226.893 87.3877 220.643 111.367 229.954 118.808L233.237 114.407Z" fill="#2DB3FF"/>
<path d="M236.481 93.6398L230.37 57.21C230.37 57.21 222.055 87.0625 236.771 100.211L236.481 93.6398Z" fill="#2DB3FF"/>
<path d="M237.678 57.4356C237.678 57.4356 221.973 32.9538 222.3 30.2271C222.3 30.2271 223.963 55.8977 243.72 68.6739L237.678 57.4356Z" fill="#2DB3FF"/>
<path d="M239.518 50.208C239.518 50.208 224.7 15.4224 217.997 12.6069C217.997 12.6069 239.165 22.7096 240.752 49.2142L239.518 50.208Z" fill="#2DB3FF"/>
<path d="M231.29 117.809L230.276 117.519C242.781 79.2323 245.906 54.8215 239.064 48.7055L239.795 47.9839C247.04 54.437 244.104 78.5639 231.29 117.809Z" fill="#444053"/>
<path d="M196.855 207.431L195.362 206.934C196.685 203.427 198.115 199.866 199.614 196.353C212.667 165.808 223.78 137.399 230.906 115.585L232.21 114.993C225.072 136.849 214.161 166.352 201.088 196.932C199.595 200.41 198.171 203.959 196.855 207.431Z" fill="#444053"/>
<path d="M228.411 418.197C228.209 417.984 207.936 396.56 193.812 359.971C185.53 338.556 180.916 316.045 180.141 293.274C179.171 264.806 185.534 233.019 196.433 204.148L197.617 205.45C173.155 270.253 182.876 325.788 195.765 359.237C209.751 395.49 229.784 416.689 229.986 416.896L228.411 418.197Z" fill="#444053"/>
<path d="M409.098 171.427H406.401C405.605 171.427 404.959 172.033 404.959 172.781V213.263C404.959 214.011 405.605 214.617 406.401 214.617H409.098C409.895 214.617 410.54 214.011 410.54 213.263V172.781C410.54 172.033 409.895 171.427 409.098 171.427Z" fill="#3A3768"/>
<path d="M221.16 137.588H220.914C220.117 137.588 219.472 138.194 219.472 138.942V150.453C219.472 151.201 220.117 151.807 220.914 151.807H221.16C221.957 151.807 222.603 151.201 222.603 150.453V138.942C222.603 138.194 221.957 137.588 221.16 137.588Z" fill="#3A3768"/>
<path d="M221.443 163.625H220.8C220.004 163.625 219.358 164.231 219.358 164.98V187.018C219.358 187.766 220.004 188.373 220.8 188.373H221.443C222.24 188.373 222.886 187.766 222.886 187.018V164.98C222.886 164.231 222.24 163.625 221.443 163.625Z" fill="#3A3768"/>
<path d="M221.33 197.033H220.857C220.061 197.033 219.415 197.64 219.415 198.388V220.64C219.415 221.388 220.061 221.994 220.857 221.994H221.33C222.127 221.994 222.772 221.388 222.772 220.64V198.388C222.772 197.64 222.127 197.033 221.33 197.033Z" fill="#3A3768"/>
<path d="M383.407 90.5996H245.805C232.239 90.5996 221.242 100.925 221.242 113.662V423.845C221.242 436.582 232.239 446.907 245.805 446.907H383.407C396.973 446.907 407.97 436.582 407.97 423.845V113.662C407.97 100.925 396.973 90.5996 383.407 90.5996Z" fill="#3A3768"/>
<path d="M381.63 99.8569H360.211V102.276C360.211 103.782 359.895 105.273 359.281 106.664C358.667 108.055 357.767 109.319 356.632 110.384C355.498 111.448 354.151 112.293 352.669 112.868C351.187 113.444 349.599 113.74 347.995 113.739H279.875C278.271 113.74 276.682 113.444 275.2 112.868C273.718 112.293 272.372 111.448 271.237 110.384C270.103 109.319 269.203 108.055 268.589 106.664C267.975 105.273 267.659 103.782 267.659 102.276V99.8569H247.607C243.674 99.8569 239.901 101.324 237.12 103.935C234.339 106.546 232.777 110.088 232.777 113.781V423.704C232.777 427.396 234.339 430.938 237.12 433.549C239.901 436.16 243.674 437.627 247.607 437.627H381.63C385.563 437.627 389.335 436.16 392.117 433.549C394.898 430.938 396.46 427.396 396.46 423.704V113.804C396.463 111.974 396.082 110.161 395.339 108.469C394.595 106.777 393.503 105.239 392.125 103.943C390.748 102.648 389.112 101.62 387.311 100.919C385.51 100.218 383.58 99.8569 381.63 99.8569Z" fill="#2DB3FF"/>
<path d="M320.232 101.24H299.033C297.686 101.24 296.594 102.265 296.594 103.529V103.92C296.594 105.184 297.686 106.209 299.033 106.209H320.232C321.578 106.209 322.67 105.184 322.67 103.92V103.529C322.67 102.265 321.578 101.24 320.232 101.24Z" fill="#E6E8EC"/>
<path d="M329.619 106.547C331.278 106.547 332.624 105.284 332.624 103.726C332.624 102.167 331.278 100.904 329.619 100.904C327.959 100.904 326.613 102.167 326.613 103.726C326.613 105.284 327.959 106.547 329.619 106.547Z" fill="#E6E8EC"/>
<path d="M472.619 74.9716C472.619 74.9716 419.574 71.9668 425.824 106.865C425.824 106.865 424.564 113.034 430.536 115.832C430.536 115.832 430.631 113.247 435.979 114.128C437.884 114.425 439.818 114.512 441.744 114.388C444.341 114.228 446.813 113.279 448.787 111.685V111.685C448.787 111.685 463.699 105.901 469.495 83.0218C469.495 83.0218 473.785 78.0296 473.615 76.7461L464.663 80.3364C464.663 80.3364 467.724 86.3992 465.293 91.4387C465.293 91.4387 465.003 80.5553 463.283 80.7919C462.936 80.8392 458.634 82.8916 458.634 82.8916C458.634 82.8916 463.894 93.4497 459.925 101.127C459.925 101.127 461.431 88.1145 456.989 83.6547L450.69 87.109C450.69 87.109 456.838 98.016 452.668 106.918C452.668 106.918 453.739 93.2664 449.36 87.9489L443.653 92.1307C443.653 92.1307 449.43 102.878 445.908 110.26C445.908 110.26 445.448 94.3725 442.418 93.1717C442.418 93.1717 437.422 97.3122 436.66 99.0038C436.66 99.0038 440.616 106.811 438.159 110.928C438.159 110.928 436.653 100.341 435.419 100.281C435.419 100.281 430.442 107.297 429.925 112.111C429.925 112.111 430.139 104.96 434.215 99.619C434.215 99.619 429.402 100.394 426.593 103.322C426.593 103.322 427.367 98.365 435.444 97.9273C435.444 97.9273 439.558 92.6039 440.654 92.2845C440.654 92.2845 432.628 91.6516 427.758 93.6804C427.758 93.6804 432.042 89.0017 442.128 91.1311L447.766 86.8073C447.766 86.8073 437.195 85.4528 432.71 86.9493C432.71 86.9493 437.869 82.8088 449.285 85.8254L455.421 82.383C455.421 82.383 446.406 80.5612 441.038 81.2C441.038 81.2 446.708 78.3312 457.223 81.4425L461.632 79.5911C461.632 79.5911 455.03 78.3727 453.096 78.1775C451.162 77.9823 451.061 77.4854 451.061 77.4854C455.244 76.8306 459.538 77.279 463.466 78.7808C463.466 78.7808 472.777 75.5217 472.619 74.9716Z" fill="#2DB3FF"/>
<path d="M418.207 59.4529C418.207 59.4529 394.268 58.0984 397.065 73.8675C397.065 73.8675 396.504 76.6535 399.194 77.9193C399.194 77.9193 399.238 76.7363 401.658 77.1444C402.517 77.2802 403.39 77.3199 404.259 77.2627C405.435 77.1898 406.552 76.7577 407.441 76.0324V76.0324C407.441 76.0324 414.182 73.418 416.803 63.0788C416.803 63.0788 418.737 60.8252 418.661 60.2455L414.616 61.8662C414.616 61.8662 415.996 64.6048 414.913 66.8821C414.913 66.8821 414.78 61.9668 414.005 62.0792C413.848 62.0792 411.901 63.0315 411.901 63.0315C411.901 63.0315 414.283 67.8048 412.487 71.2709C412.487 71.2709 413.168 65.3915 411.158 63.3745L408.31 64.9597C408.31 64.9597 411.089 69.8868 409.205 73.909C409.205 73.909 409.69 67.7397 407.712 65.3383L405.135 67.231C405.135 67.231 407.743 72.0872 406.156 75.4232C406.156 75.4232 405.942 68.2425 404.574 67.6983C404.574 67.6983 402.319 69.5674 401.973 70.3364C401.973 70.3364 403.762 73.8853 402.653 75.7248C402.653 75.7248 401.973 70.9397 401.393 70.916C401.393 70.916 399.144 74.0864 398.911 76.2394C399.023 74.232 399.692 72.2869 400.851 70.5966C399.553 70.8274 398.356 71.4092 397.405 72.2705C397.405 72.2705 397.758 70.0288 401.406 69.8336C401.406 69.8336 403.296 67.4262 403.762 67.2784C403.762 67.2784 400.133 66.9944 397.934 67.9112C397.934 67.9112 399.868 65.7996 404.423 66.7578L406.943 64.8059C406.943 64.8059 402.162 64.2144 400.139 64.871C400.139 64.871 402.47 63.0019 407.63 64.3623L410.402 62.8067C410.402 62.8067 406.326 61.9845 403.9 62.2803C403.9 62.2803 406.464 60.9849 411.215 62.3867L413.199 61.5527C413.199 61.5527 410.213 61.0026 409.337 60.9139C408.461 60.8252 408.417 60.6004 408.417 60.6004C410.309 60.3051 412.25 60.5099 414.024 61.1919C414.024 61.1919 418.283 59.7014 418.207 59.4529Z" fill="#2DB3FF"/>
<path opacity="0.1" d="M343.352 332.312C343.022 332.352 342.704 332.459 342.422 332.626C342.14 332.793 341.901 333.016 341.72 333.279C341.54 333.543 341.424 333.84 341.379 334.15C341.335 334.46 341.363 334.776 341.462 335.075C341.991 337.547 343.352 332.312 343.352 332.312Z" fill="black"/>
<path opacity="0.1" d="M270.33 440.467C270.33 440.467 270.33 442.981 275.288 446.677Z" fill="black"/>
<path opacity="0.1" d="M544.419 460.115C553.789 460.115 561.384 458.911 561.384 457.424C561.384 455.938 553.789 454.733 544.419 454.733C535.049 454.733 527.453 455.938 527.453 457.424C527.453 458.911 535.049 460.115 544.419 460.115Z" fill="#2DB3FF"/>
<path opacity="0.1" d="M57.3881 482.201C66.7579 482.201 74.3536 480.996 74.3536 479.51C74.3536 478.024 66.7579 476.819 57.3881 476.819C48.0182 476.819 40.4225 478.024 40.4225 479.51C40.4225 480.996 48.0182 482.201 57.3881 482.201Z" fill="#2DB3FF"/>
<path opacity="0.1" d="M123.014 496.64C132.384 496.64 139.98 495.435 139.98 493.949C139.98 492.462 132.384 491.257 123.014 491.257C113.644 491.257 106.049 492.462 106.049 493.949C106.049 495.435 113.644 496.64 123.014 496.64Z" fill="#2DB3FF"/>
<path d="M507.281 490.288C521.272 490.288 532.613 488.488 532.613 486.266C532.613 484.045 521.272 482.244 507.281 482.244C493.291 482.244 481.95 484.045 481.95 486.266C481.95 488.488 493.291 490.288 507.281 490.288Z" fill="#2DB3FF"/>
<path d="M517.758 479.688C518.912 478.802 519.754 477.608 520.171 476.263C520.486 474.909 519.868 473.306 518.482 472.78C516.933 472.224 515.276 473.235 514.022 474.252C512.768 475.27 511.326 476.435 509.681 476.216C510.528 475.498 511.161 474.585 511.52 473.568C511.879 472.551 511.951 471.464 511.729 470.414C511.655 469.978 511.457 469.569 511.156 469.231C510.299 468.367 508.736 468.734 507.71 469.42C504.434 471.579 503.52 475.761 503.501 479.517C503.167 478.162 503.451 476.749 503.438 475.376C503.426 474.004 503.029 472.419 501.775 471.691C501.002 471.302 500.133 471.11 499.255 471.135C497.781 471.082 496.143 471.224 495.135 472.235C493.875 473.489 494.215 475.595 495.299 476.967C496.382 478.34 498.039 479.221 499.564 480.173C500.783 480.856 501.823 481.788 502.607 482.9C502.701 483.055 502.777 483.22 502.833 483.391H512.038C514.113 482.404 516.037 481.158 517.758 479.688V479.688Z" fill="#2DB3FF"/>
<path d="M123.89 427.809C123.89 427.809 127.355 432.061 122.296 438.455C117.237 444.849 113.067 450.285 114.736 454.29C114.736 454.29 122.371 442.371 128.596 442.205C134.82 442.04 130.725 434.977 123.89 427.809Z" fill="#2DB3FF"/>
<path d="M105.614 427.809C105.614 427.809 102.149 432.061 107.208 438.455C112.266 444.849 116.437 450.285 114.767 454.29C114.767 454.29 107.138 442.371 100.908 442.205C94.6771 442.04 98.7657 434.977 105.614 427.809Z" fill="#2DB3FF"/>
<path d="M355.973 410.727L354.169 427.146L364.393 426.014L365.596 412.426L355.973 410.727Z" fill="#FFB9B9"/>
<path d="M328.908 286.171C328.908 286.171 276.579 333.729 309.66 348.45H319.885C319.885 348.45 342.139 313.911 352.966 314.48L355.973 347.317L354.169 413.559L367.402 414.125C367.402 414.125 375.221 380.721 374.619 362.037L388.453 292.965L328.908 286.171Z" fill="#2F2E41"/>
<path d="M312.666 346.185L319.884 348.449C319.884 348.449 348.153 342.222 349.955 342.788L355.552 342.752L355.37 329.199H331.313L312.666 346.185Z" fill="#2F2E41"/>
<path d="M365.596 423.749C365.596 423.749 354.769 419.22 352.965 423.749C351.161 428.279 351.762 441.301 351.762 441.301C353.205 443.912 353.631 446.917 352.965 449.793C351.762 454.323 357.777 456.587 365.596 454.323C373.415 452.058 373.415 446.396 373.415 446.396L365.596 423.749Z" fill="#2F2E41"/>
<path d="M374.618 328.065C374.618 328.065 383.039 323.535 382.437 330.329C381.938 334.816 380.721 339.206 378.828 343.351C378.828 343.351 386.647 362.601 378.828 364.299C371.009 365.997 364.994 362.034 364.994 359.203C364.994 356.372 374.618 328.065 374.618 328.065Z" fill="#2F2E41"/>
<path d="M348.153 172.937L349.357 194.452L359.581 202.943L371.01 187.657V172.371L348.153 172.937Z" fill="#FFB9B9"/>
<path d="M355.972 194.451L349.087 189.635L344.545 196.15L324.094 207.472L336.123 236.912L336.724 265.787C336.724 265.787 314.47 287.301 327.702 290.132C340.935 292.964 387.85 299.191 390.256 294.096C392.661 289.001 387.249 236.347 387.249 236.347L389.053 191.619L371.01 185.479L355.972 194.451Z" fill="white"/>
<path d="M319.282 230.31C319.282 230.31 314.47 262.39 323.493 262.39C328.851 262.407 334.162 261.446 339.131 259.56L331.913 242.008L334.921 230.119L319.282 230.31Z" fill="#FFB9B9"/>
<path d="M333.116 258.43L339.733 259.562C339.733 259.562 358.98 248.239 360.183 247.672C361.386 247.105 340.935 237.481 340.935 237.481L327.101 242.577L333.116 258.43Z" fill="#FFB9B9"/>
<path opacity="0.1" d="M340.935 237.48L332.248 240.679L334.921 230.12L319.283 230.309C319.283 230.309 314.471 262.389 323.494 262.389C328.852 262.406 334.163 261.445 339.132 259.558L339.086 259.447L339.733 259.558C339.733 259.558 358.981 248.236 360.183 247.669C361.386 247.101 340.935 237.48 340.935 237.48Z" fill="black"/>
<path d="M362.068 183.673C371.553 183.673 379.243 176.435 379.243 167.506C379.243 158.577 371.553 151.339 362.068 151.339C352.582 151.339 344.893 158.577 344.893 167.506C344.893 176.435 352.582 183.673 362.068 183.673Z" fill="#FFB9B9"/>
<path d="M346.883 149.267L343.527 148.003C343.527 148.003 350.544 140.731 360.306 141.364L357.56 138.518C357.56 138.518 364.271 135.989 370.372 142.628C373.58 146.116 377.291 150.22 379.606 154.841H383.2L381.7 157.95L386.949 161.06L381.56 160.501C382.071 163.185 381.896 165.945 381.05 168.553L381.195 171.012C381.195 171.012 374.949 161.916 374.949 160.651V163.813C374.949 163.813 371.594 160.968 371.594 159.071L369.763 161.284L368.845 157.801L357.558 161.278L359.388 158.433L352.372 159.381L355.118 155.904C355.118 155.904 347.186 160.014 346.881 163.492C346.575 166.969 342.61 171.395 342.61 171.395L340.779 168.233C340.779 168.233 338.036 154.009 346.883 149.267Z" fill="#2F2E41"/>
<path d="M377.024 220.496C373.988 224.026 372.294 228.411 372.212 232.952L340.333 231.82C340.333 231.82 331.913 230.688 331.913 236.349V242.01C331.913 242.01 336.123 240.312 338.529 242.01C340.935 243.709 366.798 258.43 379.429 252.768C392.06 247.106 395.068 225.026 395.068 225.026C395.068 225.026 383.64 215.967 377.024 220.496Z" fill="#FFB9B9"/>
<path d="M384.245 192.188L389.057 191.622C389.057 191.622 398.68 192.754 397.477 210.305C396.274 227.857 395.673 228.989 395.673 228.989C395.673 228.989 383.042 218.231 374.02 223.328L384.245 192.188Z" fill="white"/>
<path d="M326.5 207.476H324.094C320.977 211.182 319.282 215.77 319.282 220.497C319.227 225.56 318.52 230.598 317.177 235.501L336.124 232.387L326.5 207.476Z" fill="white"/>
</svg>
